<?xml version="1.0" encoding="utf-8"?>
<!-- Generator: Adobe Illustrator 26.3.0, SVG Export Plug-In . SVG Version: 6.00 Build 0)  -->
<svg version="1.1" id="Layer_1" xmlns="http://www.w3.org/2000/svg" xmlns:xlink="http://www.w3.org/1999/xlink" x="0px" y="0px"
	 viewBox="0 0 1920 1022.9" xml:space="preserve">
<style type="text/css">
	.st0{fill:#FFFFFF;}
	.st1{fill:#CE0E2D;}
	.st2{fill:#101820;}
	.st3{fill:#17FF7A;}
	.st4{font-family:'OpenSans-ExtraBold';}
	.st5{font-size:28px;}
	.st6{font-family:'OpenSans';}
	.st7{font-size:21px;}
	.st8{font-family:'OpenSans-Semibold';}
	.st9{display:none;fill:#FFFFFF;}
	.st10{fill:#3C3841;}
	.st11{fill:#0D0704;}
	.st12{fill:#6D6E71;}
	.st13{fill:#CBCBCB;}
	.st14{font-size:19.1916px;}
	.st15{font-size:22.0716px;}
	.st16{font-size:20.16px;}
	.st17{fill:#007078;}
	.st18{fill:#005866;}
	.st19{fill:#AD0E2D;}
	.st20{fill:none;stroke:#FFFFFF;stroke-width:3.072;stroke-miterlimit:10;}
	.st21{fill:#00E6AC;}
	.st22{font-size:29.9048px;}
	.st23{fill:#FFDD00;}
	.st24{fill:#FF1111;}
	.st25{font-family:'OpenSans-Bold';}
	.st26{font-size:40.32px;}
</style>
<g id="Layer_2_00000097466062553815617250000009632213046431055771_">
</g>
<path class="st0" d="M1553.3,445.2c-0.2-0.5-8.9-21.5-8.9-21.6c-0.2-0.8-1.6-1.9-2-2c-0.5-0.2-21.5-9-21.6-9
	c-0.4-0.1-0.9-0.2-1.4-0.2c-0.5-0.1-1.4,0.2-1.4,0.2c-0.5,0.2-21.5,8.9-21.6,8.9c-0.8,0.2-1.9,1.6-2,2c-0.2,0.5-9,21.5-9,21.6
	c-0.4,0.7-0.2,2.5,0,2.8c0.2,0.5,8.9,21.5,8.9,21.6c0.2,0.8,1.6,1.9,2,2c0.5,0.2,21.5,9,21.6,9c0.4,0.2,0.9,0.2,1.5,0.2
	c0.5,0.1,1.4-0.2,1.4-0.2c0.5-0.2,21.5-8.9,21.6-8.9c0.8-0.2,1.9-1.6,2-2c0.2-0.5,9-21.5,9-21.6
	C1553.7,447.3,1553.5,445.5,1553.3,445.2z"/>
<g>
	<g>
		<path class="st1" d="M1863.2,81.8c-3.6,0-7.1,0-10.8,0c0,4.3,0,8,0,10.4c0,0.4,0.6,0.7,0.6,0.7l5.3,2.2c0.6,0.3,0.8,0.3,1.4,0
			l5.5-2.2c0,0,0.6-0.3,0.6-0.7c0-0.1,0-4.5,0-10.4C1864.7,81.8,1864,81.8,1863.2,81.8z"/>
		<path class="st1" d="M1825.8,57c6.6-3.4,21.6-9.5,23.7-9.7c2-0.7,2.9,1.1,2.9,2c0,2.4,0,6.3,0,10.8c4.3,0,8.8,0,13.2,0
			c0-4.6,0-8.7,0-10.9c0-1.7,1.5-2.4,2.9-2c0,0,6.3,1.5,23.4,9.7c1.8,1.1,0.8-0.8,0.8-0.8l-8.5-20.7c0,0-0.4-0.8-1.5-0.7
			c-16.4,3.1-34,2.8-47.6,0c-1-0.1-1.3,0.7-1.3,0.7l-8.5,20.6C1825.3,56.1,1824.6,57.6,1825.8,57z"/>
	</g>
	<g>
		<g>
			<path class="st2" d="M1876.6,75.5c0.6,0,0.6,0,0.6-0.6c0-2.7,0-5.3,0-8c-0.1-0.8-1.1-0.7-1.7-0.8c-1.1,0-2.2,0-3.5,0
				c0,0-0.1,0-0.1,0.1c0,1.4,0,2.8,0,4.2C1872,76.1,1870.8,75.5,1876.6,75.5z M1906.7,58.2c-0.3-0.7-12.5-30.2-12.5-30.2
				c-0.3-1.1-2.2-2.7-2.8-2.8c-0.7-0.3-30.1-12.6-30.2-12.6c-0.6-0.1-1.3-0.3-2-0.3c-0.7-0.1-2,0.3-2,0.4
				c-0.7,0.3-30.2,12.5-30.2,12.5c-1.1,0.3-2.7,2.2-2.8,2.8c-0.3,0.7-12.6,30.1-12.6,30.2c-0.6,1-0.3,3.5,0,3.9
				c0.3,0.7,12.5,30.2,12.5,30.2c0.3,1.1,2.2,2.7,2.8,2.8c0.7,0.3,30.1,12.6,30.2,12.6c0.6,0.3,1.3,0.3,2.1,0.3c0.7,0.1,2-0.3,2-0.3
				c0.7-0.3,30.2-12.5,30.2-12.5c1.1-0.3,2.7-2.2,2.8-2.8c0.3-0.7,12.6-30.1,12.6-30.2C1907.3,61.1,1907,58.7,1906.7,58.2z
				 M1906,61.9L1893.4,92c-0.4,1-1.5,2.1-2.5,2.5l-30.2,12.5c-0.4,0.1-1.1,0.3-1.7,0.3c-0.7,0-1.3-0.1-1.8-0.3l-30.1-12.6
				c-1-0.4-2.1-1.5-2.5-2.5l-12.5-30.2c-0.4-1-0.4-2.5,0-3.5l12.6-30.1c0.4-1,1.5-2.1,2.5-2.5l30.2-12.5c0.4-0.1,1.1-0.3,1.7-0.3
				c0.7,0,1.3,0.1,1.8,0.3l30.1,12.6c1,0.4,2.1,1.5,2.5,2.5l12.5,30.2C1906.5,59.4,1906.5,61,1906,61.9z M1891.2,32.3
				c-0.7-1.7-2.4-3.4-4.1-4.1L1862,17.8c-1.1-0.4-2.1-0.6-2.9-0.6c-0.7,0-1.8,0.1-2.9,0.6l-25.1,10.4c-1.7,0.7-3.4,2.4-4.1,4.1
				l-10.4,25.1c-0.7,1.7-0.7,4.1,0,5.7l10.4,25.1c0.7,1.7,2.4,3.4,4.1,4.1l25.1,10.4c1.1,0.4,2.1,0.6,2.9,0.6c0.7,0,1.8-0.1,2.9-0.6
				l25.1-10.4c1.7-0.7,3.4-2.4,4.1-4.1l10.4-25.1c0.7-1.7,0.7-4.1,0-5.7L1891.2,32.3z M1888.5,86.7l-0.1,0.3c-0.4,1-1.5,2.1-2.5,2.5
				l-25.1,10.4c-0.4,0.1-1.1,0.3-1.7,0.3c-0.7,0-1.3-0.1-1.8-0.3l-25.1-10.4c-1-0.4-2.1-1.5-2.5-2.5v-0.1c-0.6-1.7,0.1-3.6,1.7-4.5
				c1.3-0.7,2.8-0.4,4.2-0.4c4.6,0,9.1,0,13.7,0s9.1,0,13.7,0c5.5,0,11.1,0,16.5,0c1.7,0,3.4,0,4.9,0c2-0.1,3.8,1.4,3.9,3.4
				C1888.7,85.9,1888.5,86.4,1888.5,86.7z M1848.4,75.4C1848.4,75.4,1848.4,75.5,1848.4,75.4c0.8,0.1,1.7,0.1,2.5,0.1
				c0.1,0,0.4,0,0.4,0.1c0,1,0,2,0,2.8c-0.1,0.1-0.3,0.1-0.6,0.1c-3.1,0-6.3,0-9.4,0c-0.6,0-0.6,0-0.6-0.6c0-0.8,0-1.7,0-2.4
				c0,0,0-0.1,0.1-0.1c1.1,0,2.2,0,3.4,0c0.1,0,0.3,0,0.3-0.3c0-2.5,0-5.2,0-7.7c0-0.1,0.1-0.6-0.3-0.6c-1.3,0.1-2.5,0.3-3.8,0.4
				c-0.1,0-0.1-0.1-0.1-0.1c0-1,0-2,0-2.9c0,0,0-0.1,0.1-0.1c2.5-0.3,5-0.4,7.6-0.7c0.3,0,0.1,0.3,0.1,0.4c0,1.8,0,3.8,0,5.6
				C1848.4,71.5,1848.4,73.4,1848.4,75.4z M1864,72.3C1864,72.4,1864,72.4,1864,72.3c0.6,0.1,1,0.1,1.5,0.1c0.1,0,0.1,0.1,0.1,0.3
				c0,0.8,0,1.8,0,2.7c0,0,0,0.1-0.1,0.1c-0.4,0-0.7,0-1.1,0c-0.3,0-0.4,0-0.4,0.4c0,0.8,0,1.5,0,2.4c0,0.3,0,0.3-0.3,0.3
				c-1,0-2.1,0-3.1,0c-0.3,0-0.3-0.3-0.3-0.6c0-0.8,0-1.7,0-2.4c-0.1-0.1-0.4,0-0.6-0.1c-2.4,0-4.8,0-7.1,0c-0.1,0-0.1,0-0.1-0.1
				c0-0.7-0.1-1.5,0.1-2.1c1.5-3.2,2.9-6.3,4.5-9.5c0.1-0.1,0.1-0.4,0.3-0.4c2.1,0,4.3,0,6.4,0c0.1,0,0.1,0,0.1,0.1
				c0,1.5,0,2.9,0,4.5C1864,69.4,1864,70.9,1864,72.3z M1868.1,70.3c0-4.1,0.6-7.1,5.5-7.1c6.3-0.4,7.4,1.8,7.4,7.7
				c0,5.7-1.1,7.8-7.1,7.4C1868.2,78.5,1868.1,74.8,1868.1,70.3z M1893.7,59.8c-0.7,0.3-1.4,0.4-2.1,0.4c-2,0-3.9,0-5.9,0
				c-4.6,0-9.2,0-13.9,0c-8.1,0-16.1,0-24.2,0c-6.7,0-13.4,0-20,0c-3.9,0.4-6.9-2.8-6-6.6l8.4-20.2c0.4-1,1.5-2.1,2.5-2.5l25.1-10.4
				c0.4-0.1,1.1-0.3,1.7-0.3c0.7,0,1.3,0.1,1.8,0.3l25.1,10.4c1,0.4,2.1,1.5,2.5,2.5l8.3,20C1897.4,55.9,1896.2,58.9,1893.7,59.8z
				 M1860.3,66c-0.4-0.1-0.8,0-1,0.4c-0.8,2-2.1,3.9-2.8,6c1.3,0,2.5,0,3.8,0c0.1,0,0-0.3,0.1-0.4
				C1860.4,70.1,1860.4,68.1,1860.3,66C1860.4,66.1,1860.3,66,1860.3,66z M1898.8,23c0-0.4,0-0.8,0-1.1l0,0l1.5,4.1h0.4l1.5-4.1l0,0
				c0,0.4,0,0.7,0,1.1v3h0.6v-4.5h-0.8l-1.4,3.8l0,0l-1.4-3.8h-0.8V26h0.4L1898.8,23L1898.8,23z M1895.7,25.8h0.6v-4.1h1.4v-0.4
				h-3.4v0.4h1.4V25.8z"/>
		</g>
	</g>
</g>
<g id="VenueName">
	<text transform="matrix(1 0 0 1 43.2727 75.3123)" class="st3 st4 st5" id="venuName">{data.VenueName}</text>
	<text transform="matrix(1 0 0 1 237.033 75.3123)" class="st0 st4 st5"> </text>
</g>
<g>
	<g>
		<path class="st3" d="M257.4,55L250,75.6h-4.8l7.4-20.6H257.4z"/>
	</g>
</g>
<g id="CodeName">
	<text transform="matrix(1 0 0 1 265.2136 75.3123)" class="st0 st6 st5" ></text>
</g>
<text id="RoundNo" transform="matrix(1 0 0 1 9.8704 415.9339)" class="st0 st4 st7" ></text>
<text id="TableNo" transform="matrix(1 0 0 1 188.7488 106.1331)" class="st0 st8 st7"></text>
<g>
	<path class="st0" d="M175.9,91l-5.6,15.4h-3.5l5.6-15.4H175.9z"/>
</g>
<text id="P1Score" transform="matrix(1 0 0 1 852.1774 625.5446)" class="st9 st4 st5"></text>
<text id="P2Score" transform="matrix(1 0 0 1 1041.1919 625.5446)" class="st9 st4 st5"></text>
<g>
	<path class="st10" d="M255,972c6.3,20.7,25.9,36,48.7,36H595c22.9,0,42.3-15.3,48.7-36H255z"/>
	<path class="st10" d="M1276.5,972c6.3,20.7,25.9,36,48.7,36h291.3c22.9,0,42.3-15.3,48.7-36H1276.5z"/>
	<path class="st10" d="M1680.2,972h-1440c-15.8,0-28.8-13-28.8-28.8l0,0c0-15.8,13-28.8,28.8-28.8h1440c15.8,0,28.8,13,28.8,28.8
		l0,0C1709,959.2,1696,972,1680.2,972z"/>
	<path class="st11" d="M1010.6,972H909.8c-15.8,0-28.8-13-28.8-28.8l0,0c0-15.8,13-28.8,28.8-28.8h100.8c15.8,0,28.8,13,28.8,28.8
		l0,0C1039.4,959.2,1026.4,972,1010.6,972z"/>
	<g>
		<g>
			<path class="st12" d="M453.6,983.7l-5.3,14.8h-3.5l5.3-14.8H453.6z"/>
		</g>
	</g>
	<g id="p1IncrementalRawPoints">
		<text transform="matrix(1 0 0 1 335.7851 998.3052)" class="st13 st6 st14">TARGET</text>
		<text transform="matrix(1 0 0 1 398.7129 998.3052)" class="st3 st6 st14"> </text>
		<text transform="matrix(1 0 0 1 402.8886 998.3052)" class="st3 st6 st15"> </text>
		<text transform="matrix(1 0 0 1 414.9853 998.3052)" class="st3 st6 st16"><tspan></tspan></text>
	</g>
	<g id="p1IncrementalBallsPotted">
		<text transform="matrix(1 0 0 1 469.3349 998.3052)" class="st13 st6 st14">CURRENT</text>
		<text transform="matrix(1 0 0 1 545.079 998.3052)" class="st1 st6 st14">  </text>
		<text transform="matrix(1 0 0 1 564.375 998.3052)" class="st1 st6 st16"><tspan></tspan></text>
	</g>
	<g>
		<g>
			<path class="st12" d="M1464.9,983.7l-5.3,14.8h-3.5l5.3-14.8H1464.9z"/>
		</g>
	</g>
	<g id="P2Pa">
		<text transform="matrix(1 0 0 1 1346.8719 998.3052)" class="st13 st6 st14">TARGET</text>
		<text transform="matrix(1 0 0 1 1409.7997 998.3052)" class="st3 st6 st14"> </text>
		<text transform="matrix(1 0 0 1 1413.9764 998.3052)" class="st3 st6 st15"> </text>
		<text transform="matrix(1 0 0 1 1426.0721 998.3052)" class="st3 st6 st16"><tspan></tspan></text>
	</g>
	<g id="P2Points">
		<text transform="matrix(1 0 0 1 1483.7557 998.3052)" class="st13 st6 st14">CURRENT</text>
		<text transform="matrix(1 0 0 1 1559.4999 998.3052)" class="st1 st6 st14">  </text>
		<text transform="matrix(1 0 0 1 1578.7958 998.3052)" class="st1 st6 st16"><tspan></tspan></text>
	</g>
	<g>
		<path class="st17" d="M732.9,914.4H240.2c-15.8,0-28.8,13-28.8,28.8l0,0c0,15.8,13,28.8,28.8,28.8H733c15.8,0,28.8-13,28.8-28.8
			l0,0C761.7,927.4,748.8,914.4,732.9,914.4z"/>
		<path class="st18" d="M732.4,972c16.3,0,29.4-13,29.4-28.8c0-0.7,0-1.6-0.1-2.3c-19.3,0.3-59.9,1.4-79.2,1.4
			c-37.6,0-74.9,2-112.2-1.4c-32.8-3-66.4-2.6-99.4-1.4c-56.9,2-115.8,6.8-172.7,2.9c-22.6-1.6-45.6-1.4-68.4-1.4
			c-5,0-11.5-0.3-18.3-0.3c-0.1,0.9-0.1,1.7-0.1,2.6c0,15.8,13.1,28.8,29.4,28.8L732.4,972L732.4,972z"/>
	</g>
	<g>
		<path class="st1" d="M1680.2,914.4h-492.6c-15.8,0-28.8,13-28.8,28.8l0,0c0,15.8,13,28.8,28.8,28.8h492.6
			c15.8,0,28.8-13,28.8-28.8l0,0C1709,927.4,1696,914.4,1680.2,914.4z"/>
		<path class="st19" d="M1679.6,972c16.3,0,29.4-13,29.4-28.8c0-0.7,0-1.6-0.1-2.3c-19.2,0.3-38.3,1.4-57.6,1.4
			c-37.6,0-74.9,2-112.2-1.4c-32.8-3-66.2-2.6-99.2-1.4c-56.9,2-115.8,6.8-172.5,2.9c-22.6-1.6-67.2-1.4-90-1.4
			c-5,0-11.5-0.3-18.3-0.3c-0.1,0.9-0.1,1.7-0.1,2.6c0,15.8,13.1,28.8,29.4,28.8L1679.6,972L1679.6,972z"/>
	</g>
	<g>
		<g>
			<path id="SVGID_1_" class="st13" d="M1729.9,956.2c-0.4-0.9-15-36.3-15-36.4c-0.4-1.3-2.7-3.2-3.5-3.3
				c-0.9-0.3-36.3-15.1-36.4-15.1c-0.6-0.3-1.4-0.4-2.3-0.4c-0.9-0.1-2.4,0.4-2.4,0.4c-0.9,0.4-36.3,15-36.4,15
				c-1.3,0.4-3.2,2.7-3.3,3.5c-0.3,0.9-15.1,36.3-15.1,36.3c-0.7,1.3-0.3,4.2,0,4.8c0.4,0.9,15,36.3,15,36.4
				c0.4,1.3,2.7,3.2,3.5,3.3c0.9,0.3,36.3,15.1,36.4,15.1c0.7,0.3,1.6,0.4,2.4,0.4c0.9,0.1,2.3-0.4,2.3-0.4c0.9-0.4,36.3-15,36.4-15
				c1.3-0.4,3.2-2.7,3.3-3.5c0.3-0.9,15.1-36.3,15.1-36.3C1730.6,959.6,1730.1,956.7,1729.9,956.2z"/>
		</g>
		<g>
			<path id="SVGID_00000049906541493311216350000003696317618631476415_" class="st20" d="M1729.9,956.2c-0.4-0.9-15-36.3-15-36.4
				c-0.4-1.3-2.7-3.2-3.5-3.3c-0.9-0.3-36.3-15.1-36.4-15.1c-0.6-0.3-1.4-0.4-2.3-0.4c-0.9-0.1-2.4,0.4-2.4,0.4
				c-0.9,0.4-36.3,15-36.4,15c-1.3,0.4-3.2,2.7-3.3,3.5c-0.3,0.9-15.1,36.3-15.1,36.3c-0.7,1.3-0.3,4.2,0,4.8
				c0.4,0.9,15,36.3,15,36.4c0.4,1.3,2.7,3.2,3.5,3.3c0.9,0.3,36.3,15.1,36.4,15.1c0.7,0.3,1.6,0.4,2.4,0.4c0.9,0.1,2.3-0.4,2.3-0.4
				c0.9-0.4,36.3-15,36.4-15c1.3-0.4,3.2-2.7,3.3-3.5c0.3-0.9,15.1-36.3,15.1-36.3C1730.6,959.6,1730.1,956.7,1729.9,956.2z"/>
		</g>
	</g>
	<g>
		<g>
			<path id="SVGID_00000063623050470454831140000014193408505326303673_" class="st13" d="M304.8,956.2c-0.4-0.9-15-36.3-15-36.4
				c-0.4-1.3-2.7-3.2-3.5-3.3c-0.9-0.3-36.3-15.1-36.4-15.1c-0.6-0.3-1.4-0.4-2.3-0.4c-0.9-0.1-2.4,0.4-2.4,0.4
				c-0.9,0.4-36.3,15-36.4,15c-1.3,0.4-3.2,2.7-3.3,3.5c-0.3,0.9-15.1,36.3-15.1,36.3c-0.7,1.3-0.3,4.2,0,4.8
				c0.4,0.9,15,36.3,15,36.4c0.4,1.3,2.7,3.2,3.5,3.3c0.9,0.3,36.3,15.1,36.4,15.1c0.7,0.3,1.6,0.4,2.4,0.4c0.9,0.1,2.3-0.4,2.3-0.4
				c0.9-0.4,36.3-15,36.4-15c1.3-0.4,3.2-2.7,3.3-3.5c0.3-0.9,15.1-36.3,15.1-36.3C305.5,959.6,305.3,956.7,304.8,956.2z"/>
		</g>
		<g>
			<path id="SVGID_00000112599829438237866490000000648064874266224529_" class="st20" d="M304.8,956.2c-0.4-0.9-15-36.3-15-36.4
				c-0.4-1.3-2.7-3.2-3.5-3.3c-0.9-0.3-36.3-15.1-36.4-15.1c-0.6-0.3-1.4-0.4-2.3-0.4c-0.9-0.1-2.4,0.4-2.4,0.4
				c-0.9,0.4-36.3,15-36.4,15c-1.3,0.4-3.2,2.7-3.3,3.5c-0.3,0.9-15.1,36.3-15.1,36.3c-0.7,1.3-0.3,4.2,0,4.8
				c0.4,0.9,15,36.3,15,36.4c0.4,1.3,2.7,3.2,3.5,3.3c0.9,0.3,36.3,15.1,36.4,15.1c0.7,0.3,1.6,0.4,2.4,0.4c0.9,0.1,2.3-0.4,2.3-0.4
				c0.9-0.4,36.3-15,36.4-15c1.3-0.4,3.2-2.7,3.3-3.5c0.3-0.9,15.1-36.3,15.1-36.3C305.5,959.6,305.3,956.7,304.8,956.2z"/>
		</g>
	</g>
	<text transform="matrix(1 0 0 1 1525.9608 952.313)" class="st21 st8 st22"></text>
	<text id="p2Division" transform="matrix(1 0 0 1 1533.7362 952.313)" class="st0 st8 st14">(<tspan></tspan>)</text>
	<text id="p2Name" transform="matrix(1 0 0 1 1299.2762 952.313)" class="st23 st4 st22"></text>
	<text id="p1Division" transform="matrix(1 0 0 1 583.7978 952.3657)" class="st0 st8 st14">(<tspan></tspan>)</text>
	<text id="p1GivenName" transform="matrix(1 0 0 1 347.1582 952.313)" class="st3 st4 st22">{data.p1GivenName}</text>
	<text id="Timer" transform="matrix(1 0 0 1 909 956.7915)" class="st24 st25 st26">02:47</text>
</g>
</svg>
